<svg aria-hidden="true" style="position: absolute; width: 0; height: 0; overflow: hidden;" version="1.1" xmlns="http://www.w3.org/2000/svg" xmlns:xlink="http://www.w3.org/1999/xlink">
<defs>
<symbol id="icon-arrow" viewBox="0 0 57 32">
<path fill="none" stroke="#fff" style="stroke: var(--color1, #fff)" stroke-linejoin="miter" stroke-linecap="butt" stroke-miterlimit="4" stroke-width="7.1111" d="M5.333 2.667l23.111 23.111 23.111-23.111"></path>
</symbol>
<symbol id="icon-C" viewBox="0 0 58 32">
<path d="M20.104 15.884v7.156c-2.527 0.873-3.918 1.152-5.493 1.152-4.248 0-7.434-1.606-9.448-3.491-2.38-2.269-3.698-5.446-3.698-8.483 0-3.316 1.501-6.458 3.698-8.588 2.16-2.095 5.42-3.631 9.228-3.631 1.172 0 3.076 0.175 5.713 1.187v7.226c-2.051-2.409-4.468-2.548-5.529-2.548-1.831 0-3.222 0.524-4.394 1.536-1.501 1.327-2.124 3.142-2.124 4.783 0 1.606 0.696 3.386 1.977 4.538 1.062 0.943 2.746 1.606 4.541 1.606 0.952 0 3.296-0.105 5.529-2.444z"></path>
<path d="M22.772 13.894v-4.189h5.566v-5.341h4.76v5.341h5.566v4.189h-5.566v5.341h-4.76v-5.341h-5.566z"></path>
<path d="M41.081 13.894v-4.189h5.566v-5.341h4.76v5.341h5.566v4.189h-5.566v5.341h-4.76v-5.341h-5.566z"></path>
<path d="M0 27.159h58.182v4.841h-58.182v-4.841z"></path>
</symbol>
<symbol id="icon-kwas" viewBox="0 0 34 32">
<path d="M19.048 14.724l9.524 12.705h-22.857l9.524-12.705v-10.152h3.81zM24.686 0.762h-15.086c-0.8 0-1.238 0.914-0.743 1.543l2.571 3.219v7.943l-11.048 14.724c-0.933 1.257-0.038 3.048 1.524 3.048h30.476c1.562 0 2.457-1.791 1.524-3.048l-11.048-14.724v-7.943l2.571-3.219c0.495-0.629 0.057-1.543-0.743-1.543z"></path>
</symbol>
<symbol id="icon-mikroscope" viewBox="0 0 24 32">
<path d="M3.667 28.5c-1.833 0-3.333 1.5-3.333 3.333h23.333c0-1.833-1.5-3.333-3.333-3.333h-6.667v-3.333h5c1.833 0 3.333-1.5 3.333-3.333h-13.333c-2.767 0-5-2.233-5-5 0-1.817 0.983-3.4 2.45-4.283 0.683 0.983 1.767 1.667 3.050 1.767 1.167 0.1 2.267-0.317 3.083-1.033l0.983 2.683 1.567-0.567 0.567 1.567 3.133-1.133-0.567-1.567 1.567-0.567-4.567-12.533-1.567 0.567-0.567-1.567-3.133 1.133 0.567 1.567-1.567 0.583 0.933 2.583c-1.95-0.067-3.65 1.25-4.133 3.1-3.017 1.267-5.133 4.233-5.133 7.7 0 4.6 3.733 8.333 8.333 8.333v3.333h-5zM13.434 4.367l2.85 7.833-1.567 0.567-2.85-7.833 1.567-0.567zM9.5 8.5c0.917 0 1.667 0.75 1.667 1.667s-0.75 1.667-1.667 1.667-1.667-0.75-1.667-1.667c0-0.917 0.75-1.667 1.667-1.667z"></path>
</symbol>
<symbol id="icon-MSM" viewBox="0 0 32 32">
<path d="M24.889 23.111l-7.111-7.111v-5.653c2.062-0.747 3.556-2.702 3.556-5.013 0-2.951-2.382-5.333-5.333-5.333s-5.333 2.382-5.333 5.333c0 2.311 1.493 4.267 3.556 5.013v5.653l-7.111 7.111h-7.111v8.889h8.889v-5.422l7.111-7.467 7.111 7.467v5.422h8.889v-8.889h-7.111z"></path>
</symbol>
<symbol id="icon-pazur" viewBox="0 0 39 32">
<path d="M19.429 31.238h-19.048v-3.81h10.952c-1.39-5.352-5.6-9.543-10.952-10.933 1.219-0.305 2.495-0.495 3.81-0.495 8.419 0 15.238 6.819 15.238 15.238zM38.476 16.495c-1.219-0.305-2.495-0.495-3.809-0.495-5.581 0-10.438 3.010-13.105 7.486 0.552 1.257 1.010 2.571 1.276 3.943 0.248 1.238 0.381 2.514 0.381 3.81h15.238v-3.81h-10.952c1.41-5.352 5.619-9.543 10.971-10.933zM26.362 14.133c1.486-3.981 4.248-7.314 7.791-9.524-8.171 0.267-14.724 6.952-14.724 15.2 0 0.019 0 0.038 0 0.038 1.809-2.419 4.19-4.381 6.933-5.714zM18.324 10c-1.6-4.171-4.838-7.543-8.99-9.238 2.743 3.543 4.381 7.962 4.381 12.781 0 0.4-0.057 0.781-0.076 1.162 0.819 0.457 1.581 0.991 2.324 1.562 0.4-2.248 1.238-4.362 2.362-6.267z"></path>
</symbol>
<symbol id="icon-syrop" viewBox="0 0 26 32">
<path d="M22.055 9.718l-8.879-8.863-8.878 8.863c-2.447 2.447-3.671 5.71-3.671 8.847s1.224 6.447 3.671 8.894 5.663 3.686 8.878 3.686c3.216 0 6.431-1.239 8.879-3.686s3.671-5.757 3.671-8.894c0-3.137-1.224-6.4-3.671-8.847zM3.765 19.13c0.016-3.137 0.973-5.129 2.761-6.902l6.651-6.792 6.651 6.871c1.788 1.757 2.745 3.686 2.761 6.824h-18.823z"></path>
</symbol>
</defs>
</svg>
